# xmcd
#
# Track frame offsets:
# 150
# 14511
# 36023
# 53901
# 66938
# 82880
# 103881
# 131641
# 148953
# 165685
# 180191
#
# Disc length: 2707 seconds
#
#
# Revision: 0
# Processed by: cddbd v1.5.2PL0 Copyright (c) Steve Scherf et al.
# Submitted via: FreeRIP 2.52 
#
DISCID=950a910b
DTITLE=Gustavo Patiño - Desde Tilcara
DYEAR=1900
DGENRE=Folklore
TTITLE0=Alma de barro
TTITLE1=Don choque
TTITLE2=Abra colorada
TTITLE3=Flor de un día
TTITLE4=Sanjuanito popular ecuatoriano
TTITLE5=Por el cerro negro
TTITLE6=Guanuquiando
TTITLE7=Yugunte
TTITLE8=Las siete vueltas
TTITLE9=Yacoraite
TTITLE10=Salaque
EXTD=
EXTT0=
EXTT1=
EXTT2=
EXTT3=
EXTT4=
EXTT5=
EXTT6=
EXTT7=
EXTT8=
EXTT9=
EXTT10=
PLAYORDER=
